<?xml version="1.0" standalone="no"?><!-- Generator: Gravit.io --><svg xmlns="http://www.w3.org/2000/svg" xmlns:xlink="http://www.w3.org/1999/xlink" style="isolation:isolate" viewBox="-323.12 16 1582.08 480" width="1582.08" height="480"><path d=" M 16 256 C 16 388.46 123.54 496 256 496 C 256.333 496 256.667 495.999 257 495.998 L 257 495.998 C 389 495.458 496 388.126 496 256 C 496 255.667 495.999 255.333 495.998 255 L 495.982 255 C 495.994 255.333 496 255.666 496 256 C 496 300.153 388.46 336 256 336 C 229.477 336 203.953 334.563 180.091 331.909 C 177.437 308.047 176 282.523 176 256 C 176 123.54 211.847 16 256 16 C 256.334 16 256.667 16.006 257 16.018 L 257 16.002 C 256.667 16.001 256.333 16 256 16 C 123.874 16 16.542 123 16.002 255 L 16.002 255 C 16.001 255.333 16 255.667 16 256 Z " fill="rgb(93,93,93)"/><path d=" M 331.903 331.963 C 331.905 331.945 331.907 331.927 331.909 331.909 C 427.215 321.311 496 291.312 496 256 C 496 220.688 427.215 190.689 331.909 180.091 C 321.311 84.785 291.312 16 256 16 C 250.521 16 245.17 17.656 240 20.81 L 240 20.86 C 203.5 43.082 176 139.983 176 256 C 176 282.502 177.435 308.007 180.089 331.845 C 204.107 334.54 229.821 336 256.55 336 C 282.871 336 308.208 334.585 331.903 331.963 Z " fill="rgb(232,232,232)"/><path d=" M 464 256 C 464 256.334 463.985 256.667 463.956 257 L 463.953 257 C 461.643 283.031 369.348 304 255.998 304 C 239.916 304 224.259 303.578 209.218 302.782 C 208.422 287.74 208 272.082 208 256 C 208 142.65 228.969 50.355 255 48.044 L 255 48.044 C 255.333 48.015 255.666 48 256 48 C 256 48 256 48 256.001 48 L 256.001 48 C 370.739 48 463.904 141.106 464 255.822 C 464 255.881 464 255.941 464 256 Z " fill="rgb(195,29,0)"/><path d=" M 604.88 490.24 L 604.88 42.24 L 765.52 42.24 L 765.52 42.24 Q 832.72 42.24 865.68 73.28 L 865.68 73.28 L 865.68 73.28 Q 898.64 104.32 898.64 170.88 L 898.64 170.88 L 898.64 170.88 Q 898.64 285.44 805.84 301.44 L 805.84 301.44 L 906.32 490.24 L 880.08 490.24 L 780.88 304.64 L 628.56 304.64 L 628.56 490.24 L 604.88 490.24 Z  M 628.56 282.88 L 765.52 282.88 L 765.52 282.88 Q 820.56 282.88 847.76 256.32 L 847.76 256.32 L 847.76 256.32 Q 874.96 229.76 874.96 173.44 L 874.96 173.44 L 874.96 173.44 Q 874.96 117.12 848.4 90.88 L 848.4 90.88 L 848.4 90.88 Q 821.84 64.64 765.52 64.64 L 765.52 64.64 L 628.56 64.64 L 628.56 282.88 Z  M 1020.88 63.36 L 1020.88 250.88 L 1220.56 250.88 L 1220.56 272 L 1020.88 272 L 1020.88 469.12 L 1258.96 469.12 L 1258.96 490.24 L 997.2 490.24 L 997.2 42.24 L 1258.96 42.24 L 1258.96 63.36 L 1020.88 63.36 Z  M -157.36 496 L -157.36 496 Q -224.56 496 -260.72 469.76 L -260.72 469.76 L -260.72 469.76 Q -296.88 443.52 -310 394.24 L -310 394.24 L -310 394.24 Q -323.12 344.96 -323.12 264.96 L -323.12 264.96 L -323.12 264.96 Q -323.12 190.08 -310.96 141.44 L -310.96 141.44 L -310.96 141.44 Q -298.8 92.8 -262.64 64.64 L -262.64 64.64 L -262.64 64.64 Q -226.48 36.48 -158 36.48 L -158 36.48 L -158 36.48 Q -110.64 36.48 -45.36 48.64 L -45.36 48.64 L -46.64 71.04 L -46.64 71.04 Q -113.84 58.24 -163.76 58.24 L -163.76 58.24 L -163.76 58.24 Q -220.08 58.24 -248.56 79.04 L -248.56 79.04 L -248.56 79.04 Q -277.04 99.84 -287.6 146.56 L -287.6 146.56 L -287.6 146.56 Q -298.16 193.28 -298.16 282.24 L -298.16 282.24 L -298.16 282.24 Q -298.16 349.44 -287.6 389.76 L -287.6 389.76 L -287.6 389.76 Q -277.04 430.08 -245.68 452.16 L -245.68 452.16 L -245.68 452.16 Q -214.32 474.24 -152.88 474.24 L -152.88 474.24 L -152.88 474.24 Q -110 474.24 -46.64 460.8 L -46.64 460.8 L -44.72 483.2 L -44.72 483.2 Q -111.92 496 -157.36 496 L -157.36 496 Z " fill-rule="evenodd" fill="rgb(0,0,0)"/></svg>