<?xml version="1.0" standalone="no"?><!-- Generator: Gravit.io --><svg xmlns="http://www.w3.org/2000/svg" xmlns:xlink="http://www.w3.org/1999/xlink" style="isolation:isolate" viewBox="0 0 512 512" width="512" height="512"><defs><clipPath id="_clipPath_GXlbWwYelplL04U3C8A8llEQ5w1PufNJ"><rect width="512" height="512"/></clipPath></defs><g clip-path="url(#_clipPath_GXlbWwYelplL04U3C8A8llEQ5w1PufNJ)"><path d=" M 16 256 C 16 388.46 123.54 496 256 496 C 256.333 496 256.667 495.999 257 495.998 L 257 495.998 C 389 495.458 496 388.126 496 256 C 496 255.667 495.999 255.333 495.998 255 L 495.982 255 C 495.994 255.333 496 255.666 496 256 C 496 300.153 388.46 336 256 336 C 229.477 336 203.953 334.563 180.091 331.909 C 177.437 308.047 176 282.523 176 256 C 176 123.54 211.847 16 256 16 C 256.334 16 256.667 16.006 257 16.018 L 257 16.002 C 256.667 16.001 256.333 16 256 16 C 123.874 16 16.542 123 16.002 255 L 16.002 255 C 16.001 255.333 16 255.667 16 256 Z " fill="rgb(93,93,93)"/><path d=" M 331.903 331.963 C 331.905 331.945 331.907 331.927 331.909 331.909 C 427.215 321.311 496 291.312 496 256 C 496 220.688 427.215 190.689 331.909 180.091 C 321.311 84.785 291.312 16 256 16 C 250.521 16 245.17 17.656 240 20.81 L 240 20.86 C 203.5 43.082 176 139.983 176 256 C 176 282.502 177.435 308.007 180.089 331.845 C 204.107 334.54 229.821 336 256.55 336 C 282.871 336 308.208 334.585 331.903 331.963 Z " fill="rgb(232,232,232)"/><path d=" M 464 256 C 464 256.334 463.985 256.667 463.956 257 L 463.953 257 C 461.643 283.031 369.348 304 255.998 304 C 239.916 304 224.259 303.578 209.218 302.782 C 208.422 287.74 208 272.082 208 256 C 208 142.65 228.969 50.355 255 48.044 L 255 48.044 C 255.333 48.015 255.666 48 256 48 C 256 48 256 48 256.001 48 L 256.001 48 C 370.739 48 463.904 141.106 464 255.822 C 464 255.881 464 255.941 464 256 Z " fill="rgb(195,29,0)"/></g></svg>